<?xml version="1.0" encoding="utf-8"?>
<!DOCTYPE svg PUBLIC "-//W3C//DTD SVG 1.1//EN" "http://www.w3.org/Graphics/SVG/1.1/DTD/svg11.dtd">
<svg version="1.1" xmlns="http://www.w3.org/2000/svg" xmlns:xlink="http://www.w3.org/1999/xlink" x="0px" y="0px" viewBox="0 0 1000 1000" enable-background="new 0 0 1000 1000" xml:space="preserve">
<g><path d="M500,10C229.4,10,10,229.4,10,500c0,270.6,219.4,490,490,490c270.6,0,490-219.4,490-490C990,229.4,770.6,10,500,10z M569.5,767.6h-47.8V538.9h47.8V767.6z M776.5,656.3c-12.8,19.1-32.6,28.6-59.6,28.6H662v82.6h-47.8V538.9h104.6c22.1,0,39.5,6.5,52.1,19.6c12.6,13,19,30.9,19,53.6C789.9,628.2,785.4,643,776.5,656.3z M254.7,767.6V277h-44.6v-44.6h178.4v223l224.5-223h176.9L254.7,767.6z"/><path d="M732.2,585.8c-6.6-4.9-17.3-7.3-32.2-7.3h-38v67h44.3c15.3,0,25.7-4.7,31.3-14c3-5.1,4.5-12.3,4.5-21.6C742,598.7,738.7,590.6,732.2,585.8z"/></g>
</svg>
